inDegrees=no
num_controls=7
num_derivatives=13
num_iterations=130
num_multipliers=7
num_parameters=0
num_slacks=7
num_states=26
objective=0.469832
objective_accelerations=0.063341
objective_balance=0.002097
objective_effort=0.020140
objective_height=0.374735
objective_ligament=0.009519
solver_duration=1810.038696
status=Solve_Succeeded
success=true
DataType=double
version=3
OpenSimVersion=4.5
endheader
time	/jointset/ground_pelvis/pelvis_tilt/value	/jointset/ground_pelvis/pelvis_tx/value	/jointset/ground_pelvis/pelvis_ty/value	/jointset/hip_l/hip_flexion_l/value	/jointset/hip_l/hip_adduction_l/value	/jointset/hip_l/hip_rotation_l/value	/jointset/back/lumbar_extension/value	/jointset/patellofemoral_l/patellar_flexion_l/value	/jointset/knee_l/knee_flexion_l/value	/jointset/knee_l/knee_adduction_l/value	/jointset/knee_l/knee_rotation_l/value	/jointset/ankle_l/ankle_angle_l/value	/jointset/subtalar_l/subtalar_angle_l/value	/jointset/ground_pelvis/pelvis_tilt/speed	/jointset/ground_pelvis/pelvis_tx/speed	/jointset/ground_pelvis/pelvis_ty/speed	/jointset/hip_l/hip_flexion_l/speed	/jointset/hip_l/hip_adduction_l/speed	/jointset/hip_l/hip_rotation_l/speed	/jointset/back/lumbar_extension/speed	/jointset/patellofemoral_l/patellar_flexion_l/speed	/jointset/knee_l/knee_flexion_l/speed	/jointset/knee_l/knee_adduction_l/speed	/jointset/knee_l/knee_rotation_l/speed	/jointset/ankle_l/ankle_angle_l/speed	/jointset/subtalar_l/subtalar_angle_l/speed	/forceset/tau_hip_flexion_l	/forceset/tau_hip_adduction_l	/forceset/tau_hip_rotation_l	/forceset/tau_knee_flexion_l	/forceset/tau_ankle_angle_l	/forceset/tau_subtalar_angle_l	/forceset/tau_lumbar_extension	lambda_cid13_p0	lambda_cid13_p1	lambda_cid13_p2	lambda_cid13_p3	lambda_cid13_p4	lambda_cid13_p5	lambda_cid14_p0	/jointset/ground_pelvis/pelvis_tilt/accel	/jointset/ground_pelvis/pelvis_tx/accel	/jointset/ground_pelvis/pelvis_ty/accel	/jointset/hip_l/hip_flexion_l/accel	/jointset/hip_l/hip_adduction_l/accel	/jointset/hip_l/hip_rotation_l/accel	/jointset/back/lumbar_extension/accel	/jointset/patellofemoral_l/patellar_flexion_l/accel	/jointset/knee_l/knee_flexion_l/accel	/jointset/knee_l/knee_adduction_l/accel	/jointset/knee_l/knee_rotation_l/accel	/jointset/ankle_l/ankle_angle_l/accel	/jointset/subtalar_l/subtalar_angle_l/accel	gamma_cid13_p0	gamma_cid13_p1	gamma_cid13_p2	gamma_cid13_p3	gamma_cid13_p4	gamma_cid13_p5	gamma_cid14_p0
1	-0.8291760570620381	-0.1612593179366659	0.6113974072827196	2.026489256887734	-0.3353622625238378	0.04717767182818337	-0.436330435269016	1.068014942293575	1.068014942293565	-0.003244094488523197	-0.1745280125223507	0.0008175298243731884	0.08529083047451397	-0.1631703444053725	0.01180953728379154	0.0323672035786307	0.01214348783182915	-0.005522724954972127	-0.05638641306196204	1.799231433723954e-05	-0.161972066585454	-0.1619720665854598	-0.008349014785594964	-5.784248981250785e-07	-0.02240487973068081	-0.01160463774851874	-0.379369046785588	-0.004735767880254638	-0.005762543904818065	-0.1355046807103185	0.1201475769629922	0.01916633270835156	0.2808997960346745	8.350101040436172	-6.353185800824361	-3.189215782284994	-8.322258938917285	-546.2356762731819	-68.64281038676266	-1.956078637608727	3.169908572348173	0.7699590733013093	1.806091239280798	-7.680335173583969	-0.2341724294821894	-1.290397398614628	-0.02547298913439991	-3.902033918547136	-3.902033918547131	-0.4070959340936071	-0.02415129246287918	0.3445796313325432	-0.1201699771071838	-1.03934967151221e-08	-5.076019094617782e-08	4.328994684552229e-09	1.424236270892046e-09	-9.542881227645739e-09	3.0857064335171e-08	-1.329324428814109e-08
1.01	-0.830650308934044	-0.1611028323286015	0.6118111164055626	2.026228108959635	-0.3354284109453084	0.04654990849689875	-0.4363302223395748	1.066200146902622	1.066200146902595	-0.003347301761932865	-0.1745280206117857	0.0006104612011356045	0.08516949870090125	-0.1316677385437926	0.01948964013642885	0.05035966918721955	-0.06435382691090151	-0.007699094627545854	-0.06916266580156048	2.47246789184251e-05	-0.2009782363173822	-0.2009782363173769	-0.01228967707725143	-1.317575926980932e-06	-0.01903126158053339	-0.01266042465435953	-0.3796152051908256	-0.004490874320536761	-0.00577018310718866	-0.1345875329050672	0.119445596432062	0.01930225655880311	0.2809820254436581	8.154465479349792	-6.408040087863147	-3.146115568306333	-8.337059839627289	-545.9673499010813	-68.58374162223055	-1.992775396507263	3.142278373649954	0.7673432477669743	1.793578861955764	-7.63154485311063	-0.2081817461083117	-1.270715382296054	0.0137660149499161	-3.898588968801109	-3.898588968799445	-0.3871512953510515	0.01192727729701031	0.3303867394871641	-0.09807978460897233	-9.768274417523186e-09	-5.994023811225467e-08	2.275646598137087e-09	-5.007898480339578e-09	-1.291236272731835e-08	4.178528858293357e-08	-1.616379677169491e-08
1.02	-0.8318091663913171	-0.1608694842207063	0.612404301112553	2.025202564838409	-0.3355160855654975	0.04579448740408467	-0.436329938153349	1.063995553720693	1.063995553720649	-0.003489835641987926	-0.1745280435919862	0.0004364555259261087	0.08503764971077281	-0.1000914614587299	0.02718203724994763	0.06826232040812236	-0.1407357507933527	-0.009827964698653081	-0.08191796536770318	3.224367132146276e-05	-0.2399316247807287	-0.2399316247807123	-0.01621433611488371	-3.556578159874667e-06	-0.01579229012513315	-0.0137080810516583	-0.3798613635960637	-0.004245980760820745	-0.005777822309548666	-0.1336703850998159	0.1187436159011314	0.01943818040925249	0.2810642548526412	7.955113824990582	-6.463881937094126	-3.1009863738847	-8.372427557020268	-545.7853404406104	-68.52314174368452	-2.037854583822266	3.184642817044737	0.7724179254776011	1.78812836174359	-7.657257001528077	-0.2246725091888876	-1.286206763923476	-0.02531566357005146	-3.891477664830816	-3.891477664830808	-0.4038952832887698	-0.02445126270368329	0.3176502923831067	-0.1185438753987814	-9.109033316111878e-09	-6.853122853868744e-08	7.219408813502564e-10	-1.114971447501746e-08	-1.603317112244158e-08	5.193115131800548e-08	-1.886784545745484e-08
1.03	-0.8326518978599337	-0.1605591352502678	0.6131759919064026	2.023413909324069	-0.3356248021307783	0.04491165586838104	-0.436329602821046	1.061401767992385	1.061401767992323	-0.003671562789391059	-0.1745281132578731	0.0002941195485886205	0.08489535922569515	-0.06844477466188233	0.03489116391542163	0.08605373995991597	-0.2169617646841148	-0.01190492975112478	-0.09464036198286911	3.377841882393273e-05	-0.2788094551161343	-0.2788094551161329	-0.02012937518676604	-9.794305435991181e-06	-0.01270181565356106	-0.01474754033473339	-0.3797285013203241	-0.00390402549500166	-0.005776183284571162	-0.1327146744251864	0.1179708488138457	0.01958473408442892	0.2809268840381612	7.750359468520188	-6.526247116991414	-3.05155891732242	-8.396333735530044	-545.2961004538795	-68.45147976540561	-2.091591494372397	3.156187159744432	0.7706676038154436	1.771330142425081	-7.600238968528059	-0.1976343940997254	-1.264077918910932	0.01273138825835304	-3.883521522756923	-3.883521522759156	-0.3850697826850629	0.01138232449775629	0.300705411433195	-0.09626311899284883	-8.449445084049423e-09	-7.711620818206259e-08	-8.266664439097517e-10	-1.728856803340397e-08	-1.915144203690614e-08	6.206903077233565e-08	-2.157019512486995e-08
1.04	-0.8331778613508343	-0.160171593499828	0.6141249331738758	2.020864000593685	-0.3357539735247487	0.04390183600480616	-0.4363292834723962	1.05841968679975	1.058419686799671	-0.003892392640223459	-0.1745282268305847	0.0001818801933453685	0.08474275091494055	-0.03673786591544711	0.04262059325022202	0.1037124151328229	-0.2929863940019879	-0.01391893043653301	-0.1073156309419462	2.904694024526926e-05	-0.3175907176459999	-0.3175907176460133	-0.02403487680053249	-1.233794321889958e-05	-0.009772965706431668	-0.01577164618704766	-0.3795956390445845	-0.003562070229182658	-0.005774544259602411	-0.1317589637505575	0.1171980817265599	0.01973128775960532	0.280789513223681	7.541777140122665	-6.589650607400154	-3.000014056127778	-8.43974637858847	-544.8941640282654	-68.37920542273545	-2.154269321974176	3.19668720696228	0.7764784593428801	1.761579485966251	-7.616980086950264	-0.212079635776191	-1.276781232705712	-0.02656890878629604	-3.872164103722814	-3.87216410372279	-0.4019877916655909	-0.02371244480503746	0.2853253874945689	-0.1154731892466185	-7.940725132277941e-09	-8.478873136699071e-08	-2.158834853216549e-09	-2.235763533806637e-08	-2.225280866220615e-08	7.062537623872914e-08	-2.387932914763976e-08
1.05	-0.8333864795489692	-0.1597066282722852	0.6152497365820646	2.017554965017777	-0.3359029737850764	0.04276551837636119	-0.4363290730450966	1.0550503392646	1.055050339264678	-0.004152262433939694	-0.1745283829528603	9.809727792235952e-05	0.08457996670695475	-0.004980639976397185	0.05037833062633877	0.1212200358969968	-0.3687740645722742	-0.01586835339182008	-0.1199363813393999	1.139638844248472e-05	-0.3562569829378444	-0.3562569829378573	-0.02793829012464658	-1.738652222374961e-05	-0.007012611123073291	-0.01678100616836957	-0.3790637508231489	-0.003219606847933812	-0.005761058718872306	-0.1308231505557858	0.116443522536106	0.01995404459244588	0.2804239032919477	7.360169999033874	-6.689209038216993	-2.944605216798027	-8.511883977647125	-544.2017964050485	-68.36525976590839	-2.22625087068414	3.166006272945577	0.7762976024348758	1.741113678403684	-7.552666658544414	-0.1844439092842957	-1.253017611782737	0.01039055186334897	-3.860581516527005	-3.860581516526959	-0.3844229560859744	0.01132964069936007	0.2670369967905998	-0.09302379449281269	-7.436719814265549e-09	-9.243274028759236e-08	-3.484239546399809e-09	-2.739327182229989e-08	-2.535364702846975e-08	7.913229876799963e-08	-2.617617518151441e-08
